<svg xmlns="http://www.w3.org/2000/svg" id="agentes-ejemplo-n1-es-lienzo" class="dg-svg dg-nivel-1" lang="es" viewBox="0 0 976 499" width="976" height="499" role="graphics-document document" aria-labelledby="agentes-ejemplo-n1-es-titulo" aria-describedby="agentes-ejemplo-n1-es-desc" data-vista="nivel-1">
<title id="agentes-ejemplo-n1-es-titulo">Agentes Ejemplo (ficticio) · visión general</title>
<desc id="agentes-ejemplo-n1-es-desc">Mapa de Agentes Ejemplo (ficticio): 5 capas de izquierda a derecha y 2 franjas transversales abajo.</desc>
<defs><path id="agentes-ejemplo-n1-es-g-triangulo" d="M0,-7.5 L7.5,6 L-7.5,6 Z" fill="currentColor"/><path id="agentes-ejemplo-n1-es-g-cuadrado" d="M-6.5,-6.5 H6.5 V6.5 H-6.5 Z" fill="currentColor"/><path id="agentes-ejemplo-n1-es-g-rombo" d="M0,-8 L8,0 L0,8 L-8,0 Z" fill="currentColor"/><path id="agentes-ejemplo-n1-es-g-escudo" d="M0,-7.5 L6.5,-5 V0 C6.5,4 3.5,6.3 0,7.8 C-3.5,6.3 -6.5,4 -6.5,0 V-5 Z" fill="currentColor"/><path id="agentes-ejemplo-n1-es-g-circulo" d="M0,-7 A7,7 0 1 1 0,7 A7,7 0 1 1 0,-7 Z" fill="currentColor"/><path id="agentes-ejemplo-n1-es-g-estrella" d="M0.0,-8.2 L2.1,-2.8 L7.8,-2.5 L3.3,1.1 L4.8,6.6 L0.0,3.5 L-4.8,6.6 L-3.3,1.1 L-7.8,-2.5 L-2.1,-2.8 Z" fill="currentColor"/><path id="agentes-ejemplo-n1-es-g-anillo" d="M0,-6 A6,6 0 1 1 0,6 A6,6 0 1 1 0,-6 Z" fill="none" stroke="currentColor" stroke-width="2.6"/><path id="agentes-ejemplo-n1-es-g-barras" d="M-7.5,2 H-4 V7.5 H-7.5 Z M-1.75,-2.5 H1.75 V7.5 H-1.75 Z M4,-7.5 H7.5 V7.5 H4 Z" fill="currentColor"/><path id="agentes-ejemplo-n1-es-m-cuadros" d="M-5.5,-2.5 H-1.5 V1.5 H-5.5 Z M1.5,-2.5 H5.5 V1.5 H1.5 Z M-5.5,3.5 H5.5" fill="currentColor" stroke="currentColor" stroke-width="1.2"/><path id="agentes-ejemplo-n1-es-m-onda" d="M-6,0 C-4.5,-4.5 -1.5,-4.5 0,0 S4.5,4.5 6,0" fill="none" stroke="currentColor" stroke-width="1.6" stroke-linecap="round" stroke-linejoin="round"/><path id="agentes-ejemplo-n1-es-m-ida-y-vuelta" d="M-5.5,-2.5 H4 M1.5,-5 L4.5,-2.5 L1.5,0 M5.5,2.5 H-4 M-1.5,0 L-4.5,2.5 L-1.5,5" fill="none" stroke="currentColor" stroke-width="1.6" stroke-linecap="round" stroke-linejoin="round"/><path id="agentes-ejemplo-n1-es-m-enlace" d="M-1.2,-3 H-3.5 A3,3 0 0 0 -3.5,3 H-1.2 M1.2,-3 H3.5 A3,3 0 0 1 3.5,3 H1.2 M-2.5,0 H2.5" fill="none" stroke="currentColor" stroke-width="1.6" stroke-linecap="round" stroke-linejoin="round"/><path id="agentes-ejemplo-n1-es-k-vigente" d="M-4.5,0.5 L-1.5,3.5 L4.5,-3.5" fill="none" stroke="currentColor" stroke-width="1.8" stroke-linecap="round" stroke-linejoin="round"/><path id="agentes-ejemplo-n1-es-k-revisar" d="M0,-5 V1.5 M0,4.2 V4.6" fill="none" stroke="currentColor" stroke-width="1.8" stroke-linecap="round" stroke-linejoin="round"/><path id="agentes-ejemplo-n1-es-k-vencido" d="M-3.8,-3.8 L3.8,3.8 M3.8,-3.8 L-3.8,3.8" fill="none" stroke="currentColor" stroke-width="1.8" stroke-linecap="round" stroke-linejoin="round"/><path id="agentes-ejemplo-n1-es-k-envia" d="M0,5 V-4 M-3.5,-1 L0,-4.5 L3.5,-1" fill="none" stroke="currentColor" stroke-width="1.8" stroke-linecap="round" stroke-linejoin="round"/><path id="agentes-ejemplo-n1-es-k-recibe" d="M0,-5 V4 M-3.5,1 L0,4.5 L3.5,1" fill="none" stroke="currentColor" stroke-width="1.8" stroke-linecap="round" stroke-linejoin="round"/><path id="agentes-ejemplo-n1-es-k-doc" d="M-4,-5.5 H2 L4.5,-3 V5.5 H-4 Z M-1.5,-1 H2 M-1.5,2 H2" fill="none" stroke="currentColor" stroke-width="1.3" stroke-linecap="round" stroke-linejoin="round"/><path id="agentes-ejemplo-n1-es-k-rama" d="M-5,-3 H5 M-5,3 H5 M1.5,-6 L5,-3 L1.5,0 M1.5,0 L5,3 L1.5,6" fill="none" stroke="currentColor" stroke-width="1.6" stroke-linecap="round" stroke-linejoin="round"/></defs>
<g class="dg-guias" aria-hidden="true" data-dueno="canales"><path class="dg-guia" d="M185,0 V281"/><path class="dg-guia" d="M387,0 V281"/><path class="dg-guia" d="M589,0 V281"/><path class="dg-guia" d="M791,0 V281"/></g>
<g id="agentes-ejemplo-n1-es-b-interfaz" role="group" aria-label="Interfaz: ¿Dónde pregunta la persona?" data-dueno="interfaz"><text class="dg-t-num"><tspan x="8" y="16.3">01</tspan></text><text class="dg-t-banda"><tspan x="8" y="42.4">Interfaz</tspan></text><text class="dg-t-pregunta"><tspan x="8" y="67.3">¿Dónde pregunta la</tspan><tspan x="8" y="86.3">persona?</tspan></text></g>
<g id="agentes-ejemplo-n1-es-b-orquestacion" role="group" aria-label="Orquestación: ¿Quién reparte el trabajo?" data-dueno="orquestacion"><text class="dg-t-num"><tspan x="210" y="16.3">02</tspan></text><text class="dg-t-banda"><tspan x="210" y="42.4">Orquestación</tspan></text><text class="dg-t-pregunta"><tspan x="210" y="67.3">¿Quién reparte el</tspan><tspan x="210" y="86.3">trabajo?</tspan></text></g>
<g id="agentes-ejemplo-n1-es-b-agentes" role="group" aria-label="Agentes: ¿Quién razona?" data-dueno="agentes"><text class="dg-t-num"><tspan x="412" y="16.3">03</tspan></text><text class="dg-t-banda"><tspan x="412" y="42.4">Agentes</tspan></text><text class="dg-t-pregunta"><tspan x="412" y="67.3">¿Quién razona?</tspan></text></g>
<g id="agentes-ejemplo-n1-es-b-herramientas" role="group" aria-label="Herramientas: ¿Con qué actúa?" data-dueno="herramientas"><text class="dg-t-num"><tspan x="614" y="16.3">04</tspan></text><text class="dg-t-banda"><tspan x="614" y="42.4">Herramientas</tspan></text><text class="dg-t-pregunta"><tspan x="614" y="67.3">¿Con qué actúa?</tspan></text></g>
<g id="agentes-ejemplo-n1-es-b-memoria" role="group" aria-label="Memoria y datos: ¿Qué recuerda?" data-dueno="memoria"><text class="dg-t-num"><tspan x="816" y="16.3">05</tspan></text><text class="dg-t-banda"><tspan x="816" y="42.4">Memoria y datos</tspan></text><text class="dg-t-pregunta"><tspan x="816" y="67.3">¿Qué recuerda?</tspan></text></g>
<g id="agentes-ejemplo-n1-es-e-chat" class="dg-elem" role="graphics-symbol img" tabindex="0" aria-label="Chat. Bloque de prueba: chat. Componentes: Chat." data-dueno="chat" data-nodos="chat-ui"><rect class="dg-card" data-caja="" x="8" y="109" width="152" height="104" rx="6"/><path class="dg-f-tipo-5" d="M14,109 H12 V213 H14 A6,6 0 0 1 8,207 V115 A6,6 0 0 1 14,109 Z"/><use class="dg-c-tipo-5" href="#agentes-ejemplo-n1-es-g-escudo" x="31" y="131.9"/><text class="dg-t-nombre"><tspan x="46" y="137.5">Chat</tspan></text><text class="dg-t-meta"><tspan x="26" y="194.5">1 componente</tspan></text></g>
<g id="agentes-ejemplo-n1-es-e-_orquestacion" class="dg-elem dg-elem-fantasma" role="graphics-symbol img" tabindex="0" aria-label="Orquestación: Orquestador." data-dueno="_orquestacion" data-nodos="orquestador"><rect class="dg-card dg-fantasma" data-caja="" x="210" y="109" width="152" height="104" rx="6"/><path class="dg-f-tipo-1" d="M216,109 H214 V213 H216 A6,6 0 0 1 210,207 V115 A6,6 0 0 1 216,109 Z"/><use class="dg-c-tipo-1" href="#agentes-ejemplo-n1-es-g-estrella" x="233" y="131.9"/><text class="dg-t-nombre"><tspan x="248" y="137.5">Orquestador</tspan></text><text class="dg-t-meta"><tspan x="228" y="194.5">1 componente</tspan></text></g>
<g id="agentes-ejemplo-n1-es-e-equipo" class="dg-elem" role="graphics-symbol img" tabindex="0" aria-label="Equipo de agentes. Bloque de prueba: equipo de agentes. Componentes: Agente analista." data-dueno="equipo" data-nodos="analista"><rect class="dg-card" data-caja="" x="412" y="109" width="152" height="104" rx="6"/><path class="dg-f-tipo-1" d="M418,109 H416 V213 H418 A6,6 0 0 1 412,207 V115 A6,6 0 0 1 418,109 Z"/><use class="dg-c-tipo-1" href="#agentes-ejemplo-n1-es-g-estrella" x="435" y="131.9"/><text class="dg-t-nombre"><tspan x="450" y="137.5">Equipo de</tspan><tspan x="450" y="157.5">agentes</tspan></text><text class="dg-t-meta"><tspan x="430" y="194.5">1 componente</tspan></text></g>
<g id="agentes-ejemplo-n1-es-e-_herramientas" class="dg-elem dg-elem-fantasma" role="graphics-symbol img" tabindex="0" aria-label="Herramientas: Buscador." data-dueno="_herramientas" data-nodos="buscador"><rect class="dg-card dg-fantasma" data-caja="" x="614" y="109" width="152" height="104" rx="6"/><path class="dg-f-tipo-2" d="M620,109 H618 V213 H620 A6,6 0 0 1 614,207 V115 A6,6 0 0 1 620,109 Z"/><use class="dg-c-tipo-2" href="#agentes-ejemplo-n1-es-g-triangulo" x="637" y="131.9"/><text class="dg-t-nombre"><tspan x="652" y="137.5">Buscador</tspan></text><text class="dg-t-meta"><tspan x="632" y="194.5">1 componente</tspan></text></g>
<g id="agentes-ejemplo-n1-es-e-recuerdos" class="dg-elem" role="graphics-symbol img" tabindex="0" aria-label="Recuerdos. Bloque de prueba: recuerdos. Componentes: Índice de documentos." data-dueno="recuerdos" data-nodos="indice"><rect class="dg-card" data-caja="" x="816" y="109" width="152" height="104" rx="6"/><path class="dg-f-tipo-3" d="M822,109 H820 V213 H822 A6,6 0 0 1 816,207 V115 A6,6 0 0 1 822,109 Z"/><use class="dg-c-tipo-3" href="#agentes-ejemplo-n1-es-g-cuadrado" x="839" y="131.9"/><text class="dg-t-nombre"><tspan x="854" y="137.5">Recuerdos</tspan></text><text class="dg-t-meta"><tspan x="834" y="194.5">1 componente</tspan></text></g>
<g class="dg-flujo dg-linea-continua" aria-hidden="true" data-dueno="chat._orquestacion"><path class="dg-linea" d="M160,161 L202,161"/><path class="dg-punta" d="M210,161 L201,165.5 L201,156.5 Z"/></g>
<g class="dg-flujo dg-linea-continua" aria-hidden="true" data-dueno="_orquestacion.equipo"><path class="dg-linea" d="M362,161 L404,161"/><path class="dg-punta" d="M412,161 L403,165.5 L403,156.5 Z"/></g>
<g class="dg-flujo dg-linea-continua" aria-hidden="true" data-dueno="equipo._herramientas"><path class="dg-linea" d="M564,150 L606,150"/><path class="dg-punta" d="M614,150 L605,154.5 L605,145.5 Z"/></g>
<g class="dg-flujo dg-linea-discontinua" aria-hidden="true" data-dueno="_herramientas.equipo"><path class="dg-linea" d="M614,172 L572,172"/><path class="dg-punta" d="M564,172 L573,167.5 L573,176.5 Z"/></g>
<g class="dg-flujo dg-linea-punteada" aria-hidden="true" data-dueno="_herramientas.recuerdos"><path class="dg-linea" d="M766,161 L808,161"/><path class="dg-punta" d="M816,161 L807,165.5 L807,156.5 Z"/></g>
<g class="dg-flujo dg-linea-discontinua" aria-hidden="true" data-dueno="equipo.chat"><path class="dg-linea" d="M478.9,213 L478.9,249 Q478.9,259 468.9,259 L124.4,259 Q114.4,259 114.4,249 L114.4,221"/><path class="dg-punta" d="M114.4,213 L118.9,222 L109.9,222 Z"/></g>
<g class="dg-etiqueta" aria-hidden="true" data-dueno="_herramientas.equipo"><rect x="582" y="163" width="22" height="18" rx="9"/><use class="dg-marca" href="#agentes-ejemplo-n1-es-m-cuadros" x="593" y="172"/></g>
<g class="dg-etiqueta" aria-hidden="true" data-dueno="_herramientas.recuerdos"><rect x="776" y="152" width="22" height="18" rx="9"/><use class="dg-marca" href="#agentes-ejemplo-n1-es-m-ida-y-vuelta" x="787" y="161"/></g>
<g class="dg-etiqueta" aria-hidden="true" data-dueno="equipo.chat"><rect x="285.7" y="250" width="22" height="18" rx="9"/><use class="dg-marca" href="#agentes-ejemplo-n1-es-m-cuadros" x="296.7" y="259"/></g>
<g class="dg-rotulo" aria-hidden="true" data-dueno="franjas"><text class="dg-t-num"><tspan x="8" y="307.3">TRANSVERSALES · ABARCAN TODAS LAS CAPAS</tspan></text></g>
<g id="agentes-ejemplo-n1-es-b-guardarrailes" role="group" aria-label="Guardarraíles: ¿Qué no puede hacer?" data-dueno="guardarrailes"><path class="dg-franja-filete" d="M8,321 H968"/><text class="dg-t-banda dg-t-banda-franja"><tspan x="22" y="355.7">Guardarraíles</tspan></text><text class="dg-t-pregunta dg-t-pregunta-franja"><tspan x="22" y="377">¿Qué no puede hacer?</tspan></text></g>
<g id="agentes-ejemplo-n1-es-e-_guardarrailes" class="dg-elem dg-elem-compacto dg-elem-fantasma" role="graphics-symbol img" tabindex="0" aria-label="Guardarraíles: Filtro de salida." data-dueno="_guardarrailes" data-nodos="filtro"><rect class="dg-card dg-fantasma" data-caja="" x="230" y="331" width="180" height="60" rx="6"/><path class="dg-f-tipo-5" d="M236,331 H234 V391 H236 A6,6 0 0 1 230,385 V337 A6,6 0 0 1 236,331 Z"/><use class="dg-c-tipo-5" href="#agentes-ejemplo-n1-es-g-escudo" x="252" y="361"/><text class="dg-t-nombre dg-t-nombre-compacto"><tspan x="270" y="357.8">Filtro de salida</tspan></text><text class="dg-t-meta dg-t-meta-compacta"><tspan x="270" y="373.7">sin bloque</tspan></text></g>
<g id="agentes-ejemplo-n1-es-r-_guardarrailes.chat" class="dg-ref" role="graphics-symbol img" aria-label="Conecta con Chat, invoca" data-dueno="_guardarrailes.chat"><rect x="418" y="346" width="74.8" height="30" rx="15"/><use class="dg-marca" href="#agentes-ejemplo-n1-es-k-envia" x="434" y="361"/><text class="dg-t-ref"><tspan x="450" y="365.5">Chat</tspan></text></g>
<g id="agentes-ejemplo-n1-es-b-costo" role="group" aria-label="Costo: ¿Cuánto cuesta?" data-dueno="costo"><path class="dg-franja-filete" d="M8,411 H968"/><text class="dg-t-banda dg-t-banda-franja"><tspan x="22" y="445.7">Costo</tspan></text><text class="dg-t-pregunta dg-t-pregunta-franja"><tspan x="22" y="467">¿Cuánto cuesta?</tspan></text></g>
<g id="agentes-ejemplo-n1-es-e-_costo" class="dg-elem dg-elem-compacto dg-elem-fantasma" role="graphics-symbol img" tabindex="0" aria-label="Costo: Medidor de uso." data-dueno="_costo" data-nodos="medidor"><rect class="dg-card dg-fantasma" data-caja="" x="230" y="421" width="180" height="60" rx="6"/><path class="dg-f-tipo-5" d="M236,421 H234 V481 H236 A6,6 0 0 1 230,475 V427 A6,6 0 0 1 236,421 Z"/><use class="dg-c-tipo-5" href="#agentes-ejemplo-n1-es-g-escudo" x="252" y="451"/><text class="dg-t-nombre dg-t-nombre-compacto"><tspan x="270" y="447.8">Medidor de uso</tspan></text><text class="dg-t-meta dg-t-meta-compacta"><tspan x="270" y="463.7">sin bloque</tspan></text></g>
</svg>
