<svg xmlns="http://www.w3.org/2000/svg" id="app-ejemplo-n2-es-lienzo" class="dg-svg dg-nivel-2" lang="es" viewBox="0 0 976 469" width="976" height="469" role="graphics-document document" aria-labelledby="app-ejemplo-n2-es-titulo" aria-describedby="app-ejemplo-n2-es-desc" data-vista="nivel-2">
<title id="app-ejemplo-n2-es-titulo">App Ejemplo (ficticia) · componentes</title>
<desc id="app-ejemplo-n2-es-desc">Componentes de App Ejemplo (ficticia): 7 componentes en 5 capas y 2 franjas.</desc>
<defs><path id="app-ejemplo-n2-es-g-triangulo" d="M0,-7.5 L7.5,6 L-7.5,6 Z" fill="currentColor"/><path id="app-ejemplo-n2-es-g-cuadrado" d="M-6.5,-6.5 H6.5 V6.5 H-6.5 Z" fill="currentColor"/><path id="app-ejemplo-n2-es-g-rombo" d="M0,-8 L8,0 L0,8 L-8,0 Z" fill="currentColor"/><path id="app-ejemplo-n2-es-g-escudo" d="M0,-7.5 L6.5,-5 V0 C6.5,4 3.5,6.3 0,7.8 C-3.5,6.3 -6.5,4 -6.5,0 V-5 Z" fill="currentColor"/><path id="app-ejemplo-n2-es-g-circulo" d="M0,-7 A7,7 0 1 1 0,7 A7,7 0 1 1 0,-7 Z" fill="currentColor"/><path id="app-ejemplo-n2-es-g-estrella" d="M0.0,-8.2 L2.1,-2.8 L7.8,-2.5 L3.3,1.1 L4.8,6.6 L0.0,3.5 L-4.8,6.6 L-3.3,1.1 L-7.8,-2.5 L-2.1,-2.8 Z" fill="currentColor"/><path id="app-ejemplo-n2-es-g-anillo" d="M0,-6 A6,6 0 1 1 0,6 A6,6 0 1 1 0,-6 Z" fill="none" stroke="currentColor" stroke-width="2.6"/><path id="app-ejemplo-n2-es-g-barras" d="M-7.5,2 H-4 V7.5 H-7.5 Z M-1.75,-2.5 H1.75 V7.5 H-1.75 Z M4,-7.5 H7.5 V7.5 H4 Z" fill="currentColor"/><path id="app-ejemplo-n2-es-m-cuadros" d="M-5.5,-2.5 H-1.5 V1.5 H-5.5 Z M1.5,-2.5 H5.5 V1.5 H1.5 Z M-5.5,3.5 H5.5" fill="currentColor" stroke="currentColor" stroke-width="1.2"/><path id="app-ejemplo-n2-es-m-onda" d="M-6,0 C-4.5,-4.5 -1.5,-4.5 0,0 S4.5,4.5 6,0" fill="none" stroke="currentColor" stroke-width="1.6" stroke-linecap="round" stroke-linejoin="round"/><path id="app-ejemplo-n2-es-m-ida-y-vuelta" d="M-5.5,-2.5 H4 M1.5,-5 L4.5,-2.5 L1.5,0 M5.5,2.5 H-4 M-1.5,0 L-4.5,2.5 L-1.5,5" fill="none" stroke="currentColor" stroke-width="1.6" stroke-linecap="round" stroke-linejoin="round"/><path id="app-ejemplo-n2-es-m-enlace" d="M-1.2,-3 H-3.5 A3,3 0 0 0 -3.5,3 H-1.2 M1.2,-3 H3.5 A3,3 0 0 1 3.5,3 H1.2 M-2.5,0 H2.5" fill="none" stroke="currentColor" stroke-width="1.6" stroke-linecap="round" stroke-linejoin="round"/><path id="app-ejemplo-n2-es-k-vigente" d="M-4.5,0.5 L-1.5,3.5 L4.5,-3.5" fill="none" stroke="currentColor" stroke-width="1.8" stroke-linecap="round" stroke-linejoin="round"/><path id="app-ejemplo-n2-es-k-revisar" d="M0,-6.6 L6.8,5 H-6.8 Z M0,-2.3 V0.8 M0,3.05 V3.15" fill="none" stroke="currentColor" stroke-width="1.6" stroke-linecap="round" stroke-linejoin="round"/><path id="app-ejemplo-n2-es-k-vencido" d="M-3.8,-3.8 L3.8,3.8 M3.8,-3.8 L-3.8,3.8" fill="none" stroke="currentColor" stroke-width="1.8" stroke-linecap="round" stroke-linejoin="round"/><path id="app-ejemplo-n2-es-k-envia" d="M0,5 V-4 M-3.5,-1 L0,-4.5 L3.5,-1" fill="none" stroke="currentColor" stroke-width="1.8" stroke-linecap="round" stroke-linejoin="round"/><path id="app-ejemplo-n2-es-k-recibe" d="M0,-5 V4 M-3.5,1 L0,4.5 L3.5,1" fill="none" stroke="currentColor" stroke-width="1.8" stroke-linecap="round" stroke-linejoin="round"/><path id="app-ejemplo-n2-es-k-doc" d="M-4,-5.5 H2 L4.5,-3 V5.5 H-4 Z M-1.5,-1 H2 M-1.5,2 H2" fill="none" stroke="currentColor" stroke-width="1.3" stroke-linecap="round" stroke-linejoin="round"/><path id="app-ejemplo-n2-es-k-rama" d="M-5,-3 H5 M-5,3 H5 M1.5,-6 L5,-3 L1.5,0 M1.5,0 L5,3 L1.5,6" fill="none" stroke="currentColor" stroke-width="1.6" stroke-linecap="round" stroke-linejoin="round"/></defs>
<g class="dg-guias" aria-hidden="true" data-dueno="canales"><path class="dg-guia" d="M185,0 V283"/><path class="dg-guia" d="M387,0 V283"/><path class="dg-guia" d="M589,0 V283"/><path class="dg-guia" d="M791,0 V283"/></g>
<g id="app-ejemplo-n2-es-b-cliente" role="group" aria-label="Cliente: ¿Qué ve el usuario?" data-dueno="cliente"><text class="dg-t-num"><tspan x="8" y="16.3">01</tspan></text><text class="dg-t-banda"><tspan x="8" y="42.4">Cliente</tspan></text><text class="dg-t-pregunta"><tspan x="8" y="67.3">¿Qué ve el usuario?</tspan></text></g>
<g id="app-ejemplo-n2-es-b-app" role="group" aria-label="Aplicación: ¿Dónde vive la lógica?" data-dueno="app"><text class="dg-t-num"><tspan x="210" y="16.3">02</tspan></text><text class="dg-t-banda"><tspan x="210" y="42.4">Aplicación</tspan></text><text class="dg-t-pregunta"><tspan x="210" y="67.3">¿Dónde vive la</tspan><tspan x="210" y="86.3">lógica?</tspan></text></g>
<g id="app-ejemplo-n2-es-b-servicios" role="group" aria-label="Servicios: ¿Qué servicios usa?" data-dueno="servicios"><text class="dg-t-num"><tspan x="412" y="16.3">03</tspan></text><text class="dg-t-banda"><tspan x="412" y="42.4">Servicios</tspan></text><text class="dg-t-pregunta"><tspan x="412" y="67.3">¿Qué servicios usa?</tspan></text></g>
<g id="app-ejemplo-n2-es-b-datos" role="group" aria-label="Datos: ¿Dónde se guarda?" data-dueno="datos"><text class="dg-t-num"><tspan x="614" y="16.3">04</tspan></text><text class="dg-t-banda"><tspan x="614" y="42.4">Datos</tspan></text><text class="dg-t-pregunta"><tspan x="614" y="67.3">¿Dónde se guarda?</tspan></text></g>
<g id="app-ejemplo-n2-es-b-externos" role="group" aria-label="Externos: ¿Con quién habla afuera?" data-dueno="externos"><text class="dg-t-num"><tspan x="816" y="16.3">05</tspan></text><text class="dg-t-banda"><tspan x="816" y="42.4">Externos</tspan></text><text class="dg-t-pregunta"><tspan x="816" y="67.3">¿Con quién habla</tspan><tspan x="816" y="86.3">afuera?</tspan></text></g>
<g id="app-ejemplo-n2-es-n-navegador" class="dg-elem dg-nodo" role="graphics-symbol img" tabindex="0" aria-label="Pantalla. Interfaz. Disponible." data-dueno="navegador" data-nodo="navegador"><rect class="dg-card" data-caja="" x="8" y="109" width="152" height="84" rx="6"/><path class="dg-f-tipo-1" d="M14,109 H12 V193 H14 A6,6 0 0 1 8,187 V115 A6,6 0 0 1 14,109 Z"/><use class="dg-c-tipo-1" href="#app-ejemplo-n2-es-g-circulo" x="28" y="127"/><text class="dg-t-nombre dg-t-nombre-nodo"><tspan x="42" y="131.5">Pantalla</tspan></text><use class="dg-marca-suave" href="#app-ejemplo-n2-es-k-doc" x="92.7" y="177"/><text class="dg-t-meta dg-t-meta-compacta"><tspan x="102.7" y="181.2">1 fuente</tspan></text></g>
<g id="app-ejemplo-n2-es-n-ruta" class="dg-elem dg-nodo" role="graphics-symbol img" tabindex="0" aria-label="Ruta del servidor. Lógica. Disponible." data-dueno="ruta" data-nodo="ruta"><rect class="dg-card" data-caja="" x="210" y="109" width="152" height="84" rx="6"/><path class="dg-f-tipo-2" d="M216,109 H214 V193 H216 A6,6 0 0 1 210,187 V115 A6,6 0 0 1 216,109 Z"/><use class="dg-c-tipo-2" href="#app-ejemplo-n2-es-g-rombo" x="230" y="127"/><text class="dg-t-nombre dg-t-nombre-nodo"><tspan x="244" y="131.5">Ruta del</tspan><tspan x="244" y="147.5">servidor</tspan></text><use class="dg-marca-suave" href="#app-ejemplo-n2-es-k-doc" x="294.7" y="177"/><text class="dg-t-meta dg-t-meta-compacta"><tspan x="304.7" y="181.2">1 fuente</tspan></text></g>
<g id="app-ejemplo-n2-es-n-correo" class="dg-elem dg-nodo" role="graphics-symbol img" tabindex="0" aria-label="Servicio de correo. Integración. Disponible." data-dueno="correo" data-nodo="correo"><rect class="dg-card" data-caja="" x="412" y="109" width="152" height="84" rx="6"/><path class="dg-f-tipo-4" d="M418,109 H416 V193 H418 A6,6 0 0 1 412,187 V115 A6,6 0 0 1 418,109 Z"/><use class="dg-c-tipo-4" href="#app-ejemplo-n2-es-g-triangulo" x="432" y="127"/><text class="dg-t-nombre dg-t-nombre-nodo"><tspan x="446" y="131.5">Servicio de</tspan><tspan x="446" y="147.5">correo</tspan></text><use class="dg-marca-suave" href="#app-ejemplo-n2-es-k-doc" x="496.7" y="177"/><text class="dg-t-meta dg-t-meta-compacta"><tspan x="506.7" y="181.2">1 fuente</tspan></text></g>
<g id="app-ejemplo-n2-es-n-tabla" class="dg-elem dg-nodo" role="graphics-symbol img" tabindex="0" aria-label="Tabla. Persistencia. Disponible." data-dueno="tabla" data-nodo="tabla"><rect class="dg-card" data-caja="" x="614" y="109" width="152" height="84" rx="6"/><path class="dg-f-tipo-3" d="M620,109 H618 V193 H620 A6,6 0 0 1 614,187 V115 A6,6 0 0 1 620,109 Z"/><use class="dg-c-tipo-3" href="#app-ejemplo-n2-es-g-cuadrado" x="634" y="127"/><text class="dg-t-nombre dg-t-nombre-nodo"><tspan x="648" y="131.5">Tabla</tspan></text><use class="dg-marca-suave" href="#app-ejemplo-n2-es-k-doc" x="698.7" y="177"/><text class="dg-t-meta dg-t-meta-compacta"><tspan x="708.7" y="181.2">1 fuente</tspan></text></g>
<g id="app-ejemplo-n2-es-n-proveedor" class="dg-elem dg-nodo" role="graphics-symbol img" tabindex="0" aria-label="Proveedor externo. Integración. Disponible." data-dueno="proveedor" data-nodo="proveedor"><rect class="dg-card" data-caja="" x="816" y="109" width="152" height="84" rx="6"/><path class="dg-f-tipo-4" d="M822,109 H820 V193 H822 A6,6 0 0 1 816,187 V115 A6,6 0 0 1 822,109 Z"/><use class="dg-c-tipo-4" href="#app-ejemplo-n2-es-g-triangulo" x="836" y="127"/><text class="dg-t-nombre dg-t-nombre-nodo"><tspan x="850" y="131.5">Proveedor</tspan><tspan x="850" y="147.5">externo</tspan></text><use class="dg-marca-suave" href="#app-ejemplo-n2-es-k-doc" x="900.7" y="177"/><text class="dg-t-meta dg-t-meta-compacta"><tspan x="910.7" y="181.2">1 fuente</tspan></text></g>
<g class="dg-flujo dg-linea-continua" aria-hidden="true" data-dueno="f1"><path class="dg-linea" d="M160,137 L202,137"/><path class="dg-punta" d="M210,137 L201,141.5 L201,132.5 Z"/></g>
<g class="dg-flujo dg-linea-continua" aria-hidden="true" data-dueno="f4"><path class="dg-linea" d="M210,165 L168,165"/><path class="dg-punta" d="M160,165 L169,160.5 L169,169.5 Z"/></g>
<g class="dg-flujo dg-linea-discontinua" aria-hidden="true" data-dueno="f5"><path class="dg-linea" d="M362,137 L375,137 Q382,137 382,144 L382,144 Q382,151 389,151 L404,151"/><path class="dg-punta" d="M412,151 L403,155.5 L403,146.5 Z"/></g>
<g class="dg-flujo dg-linea-continua" aria-hidden="true" data-dueno="f3"><path class="dg-linea" d="M690,193 L690,207 Q690,217 680,217 L402,217 Q392,217 392,207 L392,175 Q392,165 382,165 L370,165"/><path class="dg-punta" d="M362,165 L371,160.5 L371,169.5 Z"/></g>
<g class="dg-flujo dg-linea-discontinua" aria-hidden="true" data-dueno="f6"><path class="dg-linea" d="M488,193 L488,229 Q488,239 498,239 L776,239 Q786,239 786,229 L786,161 Q786,151 796,151 L808,151"/><path class="dg-punta" d="M816,151 L807,155.5 L807,146.5 Z"/></g>
<g class="dg-flujo dg-linea-continua" aria-hidden="true" data-dueno="f2"><path class="dg-linea" d="M286,193 L286,251 Q286,261 296,261 L574,261 Q584,261 584,251 L584,161 Q584,151 594,151 L606,151"/><path class="dg-punta" d="M614,151 L605,155.5 L605,146.5 Z"/></g>
<g class="dg-etiqueta" aria-hidden="true" data-dueno="f5"><rect x="364" y="128" width="22" height="18" rx="9"/><use class="dg-marca" href="#app-ejemplo-n2-es-m-onda" x="375" y="137"/></g>
<g class="dg-etiqueta" aria-hidden="true" data-dueno="f6"><rect x="626" y="230" width="22" height="18" rx="9"/><use class="dg-marca" href="#app-ejemplo-n2-es-m-onda" x="637" y="239"/></g>
<g class="dg-rotulo" aria-hidden="true" data-dueno="franjas"><text class="dg-t-num"><tspan x="8" y="309.3">TRANSVERSALES · ABARCAN TODAS LAS CAPAS</tspan></text></g>
<g id="app-ejemplo-n2-es-b-seguridad" role="group" aria-label="Seguridad: ¿Qué protege qué?" data-dueno="seguridad"><path class="dg-franja-filete" d="M8,323 H968"/><text class="dg-t-banda dg-t-banda-franja"><tspan x="22" y="349.7">Seguridad</tspan></text><text class="dg-t-pregunta dg-t-pregunta-franja"><tspan x="22" y="371">¿Qué protege qué?</tspan></text></g>
<g id="app-ejemplo-n2-es-n-politicas" class="dg-elem dg-nodo dg-elem-compacto" role="graphics-symbol img" tabindex="0" aria-label="Políticas por fila. Control. Disponible." data-dueno="politicas" data-nodo="politicas"><rect class="dg-card" data-caja="" x="230" y="333" width="168" height="44" rx="6"/><path class="dg-f-tipo-5" d="M236,333 H234 V377 H236 A6,6 0 0 1 230,371 V339 A6,6 0 0 1 236,333 Z"/><use class="dg-c-tipo-5" href="#app-ejemplo-n2-es-g-escudo" x="250" y="355"/><text class="dg-t-nombre dg-t-nombre-nodo"><tspan x="264" y="359.5">Políticas por fila</tspan></text></g>
<g id="app-ejemplo-n2-es-r-f7" class="dg-ref" role="graphics-symbol img" aria-label="Conecta con Tabla, petición" data-dueno="f7"><rect x="650.2" y="340" width="79.5" height="30" rx="15"/><use class="dg-marca" href="#app-ejemplo-n2-es-k-envia" x="666.2" y="355"/><text class="dg-t-ref"><tspan x="682.2" y="359.5">Tabla</tspan></text></g>
<g id="app-ejemplo-n2-es-b-observabilidad" role="group" aria-label="Observabilidad: ¿Cómo se ve que funciona?" data-dueno="observabilidad"><path class="dg-franja-filete" d="M8,397 H968"/><text class="dg-t-banda dg-t-banda-franja"><tspan x="22" y="423.7">Observabilidad</tspan></text><text class="dg-t-pregunta dg-t-pregunta-franja"><tspan x="22" y="445">¿Cómo se ve que funciona?</tspan></text></g>
<g id="app-ejemplo-n2-es-n-trazas" class="dg-elem dg-nodo dg-elem-compacto" role="graphics-symbol img" tabindex="0" aria-label="Trazas. Control. Disponible." data-dueno="trazas" data-nodo="trazas"><rect class="dg-card" data-caja="" x="230" y="407" width="168" height="44" rx="6"/><path class="dg-f-tipo-5" d="M236,407 H234 V451 H236 A6,6 0 0 1 230,445 V413 A6,6 0 0 1 236,407 Z"/><use class="dg-c-tipo-5" href="#app-ejemplo-n2-es-g-escudo" x="250" y="429"/><text class="dg-t-nombre dg-t-nombre-nodo"><tspan x="264" y="433.5">Trazas</tspan></text></g>
</svg>
