<svg xmlns="http://www.w3.org/2000/svg" id="plataforma-ejemplo-lado-es-lienzo" class="dg-svg dg-compare" lang="es" viewBox="0 0 1190 166" width="1190" height="166" role="graphics-document document" aria-labelledby="plataforma-ejemplo-lado-es-titulo" aria-describedby="plataforma-ejemplo-lado-es-desc" data-vista="compare">
<title id="plataforma-ejemplo-lado-es-titulo">Lado a lado: Plataforma Ejemplo (ficticia)</title>
<desc id="plataforma-ejemplo-lado-es-desc">1 plataformas alineadas por banda: las 6 capas y las 3 franjas en columnas, una plataforma por fila.</desc>
<defs><path id="plataforma-ejemplo-lado-es-g-triangulo" d="M0,-7.5 L7.5,6 L-7.5,6 Z" fill="currentColor"/><path id="plataforma-ejemplo-lado-es-g-cuadrado" d="M-6.5,-6.5 H6.5 V6.5 H-6.5 Z" fill="currentColor"/><path id="plataforma-ejemplo-lado-es-g-rombo" d="M0,-8 L8,0 L0,8 L-8,0 Z" fill="currentColor"/><path id="plataforma-ejemplo-lado-es-g-escudo" d="M0,-7.5 L6.5,-5 V0 C6.5,4 3.5,6.3 0,7.8 C-3.5,6.3 -6.5,4 -6.5,0 V-5 Z" fill="currentColor"/><path id="plataforma-ejemplo-lado-es-g-circulo" d="M0,-7 A7,7 0 1 1 0,7 A7,7 0 1 1 0,-7 Z" fill="currentColor"/><path id="plataforma-ejemplo-lado-es-g-estrella" d="M0.0,-8.2 L2.1,-2.8 L7.8,-2.5 L3.3,1.1 L4.8,6.6 L0.0,3.5 L-4.8,6.6 L-3.3,1.1 L-7.8,-2.5 L-2.1,-2.8 Z" fill="currentColor"/><path id="plataforma-ejemplo-lado-es-g-anillo" d="M0,-6 A6,6 0 1 1 0,6 A6,6 0 1 1 0,-6 Z" fill="none" stroke="currentColor" stroke-width="2.6"/><path id="plataforma-ejemplo-lado-es-g-barras" d="M-7.5,2 H-4 V7.5 H-7.5 Z M-1.75,-2.5 H1.75 V7.5 H-1.75 Z M4,-7.5 H7.5 V7.5 H4 Z" fill="currentColor"/><path id="plataforma-ejemplo-lado-es-m-cuadros" d="M-5.5,-2.5 H-1.5 V1.5 H-5.5 Z M1.5,-2.5 H5.5 V1.5 H1.5 Z M-5.5,3.5 H5.5" fill="currentColor" stroke="currentColor" stroke-width="1.2"/><path id="plataforma-ejemplo-lado-es-m-onda" d="M-6,0 C-4.5,-4.5 -1.5,-4.5 0,0 S4.5,4.5 6,0" fill="none" stroke="currentColor" stroke-width="1.6" stroke-linecap="round" stroke-linejoin="round"/><path id="plataforma-ejemplo-lado-es-m-ida-y-vuelta" d="M-5.5,-2.5 H4 M1.5,-5 L4.5,-2.5 L1.5,0 M5.5,2.5 H-4 M-1.5,0 L-4.5,2.5 L-1.5,5" fill="none" stroke="currentColor" stroke-width="1.6" stroke-linecap="round" stroke-linejoin="round"/><path id="plataforma-ejemplo-lado-es-m-enlace" d="M-1.2,-3 H-3.5 A3,3 0 0 0 -3.5,3 H-1.2 M1.2,-3 H3.5 A3,3 0 0 1 3.5,3 H1.2 M-2.5,0 H2.5" fill="none" stroke="currentColor" stroke-width="1.6" stroke-linecap="round" stroke-linejoin="round"/><path id="plataforma-ejemplo-lado-es-k-vigente" d="M-4.5,0.5 L-1.5,3.5 L4.5,-3.5" fill="none" stroke="currentColor" stroke-width="1.8" stroke-linecap="round" stroke-linejoin="round"/><path id="plataforma-ejemplo-lado-es-k-revisar" d="M0,-6.6 L6.8,5 H-6.8 Z M0,-2.3 V0.8 M0,3.05 V3.15" fill="none" stroke="currentColor" stroke-width="1.6" stroke-linecap="round" stroke-linejoin="round"/><path id="plataforma-ejemplo-lado-es-k-vencido" d="M-3.8,-3.8 L3.8,3.8 M3.8,-3.8 L-3.8,3.8" fill="none" stroke="currentColor" stroke-width="1.8" stroke-linecap="round" stroke-linejoin="round"/><path id="plataforma-ejemplo-lado-es-k-envia" d="M-5,0 H4 M1,-3.5 L4.5,0 L1,3.5" fill="none" stroke="currentColor" stroke-width="1.8" stroke-linecap="round" stroke-linejoin="round"/><path id="plataforma-ejemplo-lado-es-k-recibe" d="M5,0 H-4 M-1,-3.5 L-4.5,0 L-1,3.5" fill="none" stroke="currentColor" stroke-width="1.8" stroke-linecap="round" stroke-linejoin="round"/><path id="plataforma-ejemplo-lado-es-k-doc" d="M-4,-5.5 H2 L4.5,-3 V5.5 H-4 Z M-1.5,-1 H2 M-1.5,2 H2" fill="none" stroke="currentColor" stroke-width="1.3" stroke-linecap="round" stroke-linejoin="round"/><path id="plataforma-ejemplo-lado-es-k-rama" d="M-5,-3 H5 M-5,3 H5 M1.5,-6 L5,-3 L1.5,0 M1.5,0 L5,3 L1.5,6" fill="none" stroke="currentColor" stroke-width="1.6" stroke-linecap="round" stroke-linejoin="round"/><path id="plataforma-ejemplo-lado-es-d-nuevo" d="M0,-4.5 V4.5 M-4.5,0 H4.5" fill="none" stroke="currentColor" stroke-width="2" stroke-linecap="round" stroke-linejoin="round"/><path id="plataforma-ejemplo-lado-es-d-retirado" d="M-4.5,0 H4.5" fill="none" stroke="currentColor" stroke-width="2" stroke-linecap="round" stroke-linejoin="round"/><path id="plataforma-ejemplo-lado-es-d-renombrado" d="M-5,0 H4 M1,-3.5 L4.5,0 L1,3.5" fill="none" stroke="currentColor" stroke-width="1.8" stroke-linecap="round" stroke-linejoin="round"/><path id="plataforma-ejemplo-lado-es-d-madurez" d="M-3.5,4.5 V-1 M0,4.5 V-4.5 M3.5,4.5 V1.5" fill="none" stroke="currentColor" stroke-width="2" stroke-linecap="round" stroke-linejoin="round"/></defs>
<g id="plataforma-ejemplo-lado-es-b-fuentes" role="group" aria-label="Fuentes: ¿De dónde vienen los datos?" data-dueno="fuentes"><text class="dg-t-num"><tspan x="8" y="15.3">01</tspan></text><text class="dg-t-banda dg-t-banda-lado"><tspan x="8" y="34.5">Fuentes</tspan></text></g>
<g id="plataforma-ejemplo-lado-es-b-ingesta" role="group" aria-label="Ingesta: ¿Cómo entran los datos a la plataforma?" data-dueno="ingesta"><text class="dg-t-num"><tspan x="140" y="15.3">02</tspan></text><text class="dg-t-banda dg-t-banda-lado"><tspan x="140" y="34.5">Ingesta</tspan></text></g>
<g id="plataforma-ejemplo-lado-es-b-almacenamiento" role="group" aria-label="Almacenamiento: ¿Dónde y en qué formato se guardan?" data-dueno="almacenamiento"><text class="dg-t-num"><tspan x="272" y="15.3">03</tspan></text><text class="dg-t-banda dg-t-banda-lado"><tspan x="272" y="34.5">Almacenamiento</tspan></text></g>
<g id="plataforma-ejemplo-lado-es-b-procesamiento" role="group" aria-label="Procesamiento y transformación: ¿Con qué motor se limpian, combinan y preparan?" data-dueno="procesamiento"><text class="dg-t-num"><tspan x="404" y="15.3">04</tspan></text><text class="dg-t-banda dg-t-banda-lado"><tspan x="404" y="34.5">Procesamiento y</tspan><tspan x="404" y="50.5">transformación</tspan></text></g>
<g id="plataforma-ejemplo-lado-es-b-consumo" role="group" aria-label="Consumo: ¿Cómo llegan a tableros, reportes y aplicaciones?" data-dueno="consumo"><text class="dg-t-num"><tspan x="536" y="15.3">05</tspan></text><text class="dg-t-banda dg-t-banda-lado"><tspan x="536" y="34.5">Consumo</tspan></text></g>
<g id="plataforma-ejemplo-lado-es-b-ia" role="group" aria-label="Inteligencia artificial: ¿Cómo se construyen modelos y agentes sobre los datos?" data-dueno="ia"><text class="dg-t-num"><tspan x="668" y="15.3">06</tspan></text><text class="dg-t-banda dg-t-banda-lado"><tspan x="668" y="34.5">Inteligencia</tspan><tspan x="668" y="50.5">artificial</tspan></text></g>
<g id="plataforma-ejemplo-lado-es-b-gobierno" role="group" aria-label="Gobierno y seguridad: ¿Quién puede ver qué, y cómo se audita?" data-dueno="gobierno"><text class="dg-t-num"><tspan x="800" y="15.3">07 ·</tspan></text><text class="dg-t-banda dg-t-banda-lado"><tspan x="800" y="34.5">Gobierno y</tspan><tspan x="800" y="50.5">seguridad</tspan></text></g>
<g id="plataforma-ejemplo-lado-es-b-operacion" role="group" aria-label="Operación y costo: ¿Cómo se vigila, se despliega y se paga?" data-dueno="operacion"><text class="dg-t-num"><tspan x="932" y="15.3">08 ·</tspan></text><text class="dg-t-banda dg-t-banda-lado"><tspan x="932" y="34.5">Operación y</tspan><tspan x="932" y="50.5">costo</tspan></text></g>
<g id="plataforma-ejemplo-lado-es-b-orquestacion" role="group" aria-label="Orquestación: ¿Quién decide qué se ejecuta y cuándo?" data-dueno="orquestacion"><text class="dg-t-num"><tspan x="1064" y="15.3">09 ·</tspan></text><text class="dg-t-banda dg-t-banda-lado"><tspan x="1064" y="34.5">Orquestación</tspan></text></g>
<path class="dg-guia" d="M793,0 V158"/>
<g id="plataforma-ejemplo-lado-es-plataforma-ejemplo--fila" role="group" aria-label="Plataforma Ejemplo (ficticia): v0.1.0 · verificado hace 6 días" data-dueno="plataforma-ejemplo/plataforma-ejemplo" data-mapa="plataforma-ejemplo"><path class="dg-franja-filete" d="M8,68 H1182"/><text class="dg-t-banda dg-t-fila-lado"><tspan x="8" y="85.5">Plataforma Ejemplo (ficticia)</tspan></text><text class="dg-t-fila-meta"><tspan x="207.7" y="85">v0.1.0 · verificado hace 6 días</tspan></text><g id="plataforma-ejemplo-lado-es-plataforma-ejemplo--e-origen" class="dg-elem dg-lado-bloque" role="graphics-symbol img" tabindex="0" aria-label="Sistemas de origen: 1 componente. Componentes: Sistema de admisiones." data-dueno="plataforma-ejemplo/origen" data-nodos="sistema-admisiones"><rect class="dg-card" data-caja="" x="8" y="94" width="118" height="64" rx="6"/><path class="dg-f-tipo-7" d="M14,94 H12 V158 H14 A6,6 0 0 1 8,152 V100 A6,6 0 0 1 14,94 Z"/><use class="dg-c-tipo-7" href="#plataforma-ejemplo-lado-es-g-anillo" x="24" y="109.7"/><text class="dg-t-nombre dg-t-nombre-nodo"><tspan x="36" y="113.7">Sistemas de</tspan><tspan x="36" y="128.7">origen</tspan></text><text class="dg-t-meta dg-t-meta-compacta"><tspan x="18" y="146.8">1 comp.</tspan></text></g><g id="plataforma-ejemplo-lado-es-plataforma-ejemplo--e-entrada" class="dg-elem dg-lado-bloque" role="graphics-symbol img" tabindex="0" aria-label="Entrada de datos: 2 componentes. Componentes: Conector de bases relacionales, Captura de cambios." data-dueno="plataforma-ejemplo/entrada" data-nodos="conector-relacional captura-cambios"><rect class="dg-card" data-caja="" x="140" y="94" width="118" height="64" rx="6"/><path class="dg-f-tipo-1" d="M146,94 H144 V158 H146 A6,6 0 0 1 140,152 V100 A6,6 0 0 1 146,94 Z"/><use class="dg-c-tipo-1" href="#plataforma-ejemplo-lado-es-g-triangulo" x="156" y="109.7"/><text class="dg-t-nombre dg-t-nombre-nodo"><tspan x="168" y="113.7">Entrada de</tspan><tspan x="168" y="128.7">datos</tspan></text><text class="dg-t-meta dg-t-meta-compacta"><tspan x="150" y="146.8">2 comp.</tspan></text></g><g id="plataforma-ejemplo-lado-es-plataforma-ejemplo--e-almacen" class="dg-elem dg-lado-bloque" role="graphics-symbol img" tabindex="0" aria-label="Almacén central: 2 componentes. Componentes: Zona de datos crudos, Tablas limpias en formato abierto." data-dueno="plataforma-ejemplo/almacen" data-nodos="capa-cruda almacen-tablas-abiertas"><rect class="dg-card" data-caja="" x="272" y="94" width="118" height="64" rx="6"/><path class="dg-f-tipo-2" d="M278,94 H276 V158 H278 A6,6 0 0 1 272,152 V100 A6,6 0 0 1 278,94 Z"/><use class="dg-c-tipo-2" href="#plataforma-ejemplo-lado-es-g-cuadrado" x="288" y="109.7"/><text class="dg-t-nombre dg-t-nombre-nodo"><tspan x="300" y="113.7">Almacén</tspan><tspan x="300" y="128.7">central</tspan></text><text class="dg-t-meta dg-t-meta-compacta"><tspan x="282" y="146.8">2 comp.</tspan></text></g><g id="plataforma-ejemplo-lado-es-plataforma-ejemplo--e-preparacion" class="dg-elem dg-lado-bloque" role="graphics-symbol img" tabindex="0" aria-label="Preparación: 2 componentes. Componentes: Motor de transformación, Canalizaciones declarativas." data-dueno="plataforma-ejemplo/preparacion" data-nodos="motor-transformacion canalizacion-declarativa"><rect class="dg-card" data-caja="" x="404" y="94" width="118" height="64" rx="6"/><path class="dg-f-tipo-3" d="M410,94 H408 V158 H410 A6,6 0 0 1 404,152 V100 A6,6 0 0 1 410,94 Z"/><use class="dg-c-tipo-3" href="#plataforma-ejemplo-lado-es-g-rombo" x="420" y="109.7"/><text class="dg-t-nombre dg-t-nombre-nodo"><tspan x="432" y="113.7">Preparación</tspan></text><text class="dg-t-meta dg-t-meta-compacta"><tspan x="414" y="146.8">2 comp.</tspan></text></g><g id="plataforma-ejemplo-lado-es-plataforma-ejemplo--e-consumo-bi" class="dg-elem dg-lado-bloque" role="graphics-symbol img" tabindex="0" aria-label="Tableros: 2 componentes. Componentes: Modelo semántico, Tablero de ocupación." data-dueno="plataforma-ejemplo/consumo-bi" data-nodos="modelo-semantico tablero"><rect class="dg-card" data-caja="" x="536" y="94" width="118" height="64" rx="6"/><path class="dg-f-tipo-5" d="M542,94 H540 V158 H542 A6,6 0 0 1 536,152 V100 A6,6 0 0 1 542,94 Z"/><use class="dg-c-tipo-5" href="#plataforma-ejemplo-lado-es-g-circulo" x="552" y="109.7"/><text class="dg-t-nombre dg-t-nombre-nodo"><tspan x="564" y="113.7">Tableros</tspan></text><text class="dg-t-meta dg-t-meta-compacta"><tspan x="546" y="146.8">2 comp.</tspan></text></g><g id="plataforma-ejemplo-lado-es-plataforma-ejemplo--e-agentes" class="dg-elem dg-lado-bloque" role="graphics-symbol img" tabindex="0" aria-label="Agentes: 1 componente, vista previa pública. Componentes: Agente de preguntas sobre datos." data-dueno="plataforma-ejemplo/agentes" data-nodos="agente-datos"><rect class="dg-card" data-caja="" x="668" y="94" width="118" height="64" rx="6"/><path class="dg-f-tipo-6" d="M674,94 H672 V158 H674 A6,6 0 0 1 668,152 V100 A6,6 0 0 1 674,94 Z"/><use class="dg-c-tipo-6" href="#plataforma-ejemplo-lado-es-g-estrella" x="684" y="109.7"/><text class="dg-t-nombre dg-t-nombre-nodo"><tspan x="696" y="113.7">Agentes</tspan></text><g class="dg-madurez"><rect class="dg-madurez-caja" x="678.5" y="137.5" width="7" height="11" rx="1.5"/><rect class="dg-madurez-nivel" x="678.5" y="140.5" width="7" height="8" rx="1"/></g><text class="dg-t-meta dg-t-meta-compacta"><tspan x="690" y="146.8">Vista previa…</tspan></text></g><g id="plataforma-ejemplo-lado-es-plataforma-ejemplo--e-gobierno" class="dg-elem dg-lado-bloque" role="graphics-symbol img" tabindex="0" aria-label="Gobierno: 2 componentes. Componentes: Catálogo central, Filtros por fila y enmascaramiento." data-dueno="plataforma-ejemplo/gobierno" data-nodos="catalogo-central filtros-filas"><rect class="dg-card" data-caja="" x="800" y="94" width="118" height="64" rx="6"/><path class="dg-f-tipo-4" d="M806,94 H804 V158 H806 A6,6 0 0 1 800,152 V100 A6,6 0 0 1 806,94 Z"/><use class="dg-c-tipo-4" href="#plataforma-ejemplo-lado-es-g-escudo" x="816" y="109.7"/><text class="dg-t-nombre dg-t-nombre-nodo"><tspan x="828" y="113.7">Gobierno</tspan></text><text class="dg-t-meta dg-t-meta-compacta"><tspan x="810" y="146.8">2 comp.</tspan></text></g><g id="plataforma-ejemplo-lado-es-plataforma-ejemplo--e-_operacion" class="dg-elem dg-lado-bloque dg-elem-fantasma" role="graphics-symbol img" tabindex="0" aria-label="Monitor de consumo: 1 componente. Componentes: Monitor de consumo." data-dueno="plataforma-ejemplo/_operacion" data-nodos="monitor-capacidad"><rect class="dg-card dg-fantasma" data-caja="" x="932" y="94" width="118" height="64" rx="6"/><path class="dg-f-tipo-8" d="M938,94 H936 V158 H938 A6,6 0 0 1 932,152 V100 A6,6 0 0 1 938,94 Z"/><use class="dg-c-tipo-8" href="#plataforma-ejemplo-lado-es-g-barras" x="948" y="109.7"/><text class="dg-t-nombre dg-t-nombre-nodo"><tspan x="960" y="113.7">Monitor de</tspan><tspan x="960" y="128.7">consumo</tspan></text><text class="dg-t-meta dg-t-meta-compacta"><tspan x="942" y="146.8">1 comp.</tspan></text></g><g id="plataforma-ejemplo-lado-es-plataforma-ejemplo--e-_orquestacion" class="dg-elem dg-lado-bloque dg-elem-fantasma" role="graphics-symbol img" tabindex="0" aria-label="Programador de tareas: 1 componente. Componentes: Programador de tareas." data-dueno="plataforma-ejemplo/_orquestacion" data-nodos="programador-tareas"><rect class="dg-card dg-fantasma" data-caja="" x="1064" y="94" width="118" height="64" rx="6"/><path class="dg-f-tipo-3" d="M1070,94 H1068 V158 H1070 A6,6 0 0 1 1064,152 V100 A6,6 0 0 1 1070,94 Z"/><use class="dg-c-tipo-3" href="#plataforma-ejemplo-lado-es-g-rombo" x="1080" y="109.7"/><text class="dg-t-nombre dg-t-nombre-nodo"><tspan x="1092" y="113.7">Programador</tspan><tspan x="1092" y="128.7">de tareas</tspan></text><text class="dg-t-meta dg-t-meta-compacta"><tspan x="1074" y="146.8">1 comp.</tspan></text></g></g>
</svg>
