<svg xmlns="http://www.w3.org/2000/svg" id="nube-ejemplo-n1-es-lienzo" class="dg-svg dg-nivel1" lang="es" viewBox="0 0 572 499" width="572" height="499" role="graphics-document document" aria-labelledby="nube-ejemplo-n1-es-titulo" aria-describedby="nube-ejemplo-n1-es-desc" data-vista="nivel1">
<title id="nube-ejemplo-n1-es-titulo">Nube Ejemplo (ficticia) · visión general</title>
<desc id="nube-ejemplo-n1-es-desc">Mapa de Nube Ejemplo (ficticia): 3 capas de izquierda a derecha y 2 franjas transversales abajo.</desc>
<defs><path id="nube-ejemplo-n1-es-g-triangulo" d="M0,-7.5 L7.5,6 L-7.5,6 Z" fill="currentColor"/><path id="nube-ejemplo-n1-es-g-cuadrado" d="M-6.5,-6.5 H6.5 V6.5 H-6.5 Z" fill="currentColor"/><path id="nube-ejemplo-n1-es-g-rombo" d="M0,-8 L8,0 L0,8 L-8,0 Z" fill="currentColor"/><path id="nube-ejemplo-n1-es-g-escudo" d="M0,-7.5 L6.5,-5 V0 C6.5,4 3.5,6.3 0,7.8 C-3.5,6.3 -6.5,4 -6.5,0 V-5 Z" fill="currentColor"/><path id="nube-ejemplo-n1-es-g-circulo" d="M0,-7 A7,7 0 1 1 0,7 A7,7 0 1 1 0,-7 Z" fill="currentColor"/><path id="nube-ejemplo-n1-es-g-estrella" d="M0.0,-8.2 L2.1,-2.8 L7.8,-2.5 L3.3,1.1 L4.8,6.6 L0.0,3.5 L-4.8,6.6 L-3.3,1.1 L-7.8,-2.5 L-2.1,-2.8 Z" fill="currentColor"/><path id="nube-ejemplo-n1-es-g-anillo" d="M0,-6 A6,6 0 1 1 0,6 A6,6 0 1 1 0,-6 Z" fill="none" stroke="currentColor" stroke-width="2.6"/><path id="nube-ejemplo-n1-es-g-barras" d="M-7.5,2 H-4 V7.5 H-7.5 Z M-1.75,-2.5 H1.75 V7.5 H-1.75 Z M4,-7.5 H7.5 V7.5 H4 Z" fill="currentColor"/><path id="nube-ejemplo-n1-es-m-cuadros" d="M-5.5,-2.5 H-1.5 V1.5 H-5.5 Z M1.5,-2.5 H5.5 V1.5 H1.5 Z M-5.5,3.5 H5.5" fill="currentColor" stroke="currentColor" stroke-width="1.2"/><path id="nube-ejemplo-n1-es-m-onda" d="M-6,0 C-4.5,-4.5 -1.5,-4.5 0,0 S4.5,4.5 6,0" fill="none" stroke="currentColor" stroke-width="1.6" stroke-linecap="round" stroke-linejoin="round"/><path id="nube-ejemplo-n1-es-m-ida-y-vuelta" d="M-5.5,-2.5 H4 M1.5,-5 L4.5,-2.5 L1.5,0 M5.5,2.5 H-4 M-1.5,0 L-4.5,2.5 L-1.5,5" fill="none" stroke="currentColor" stroke-width="1.6" stroke-linecap="round" stroke-linejoin="round"/><path id="nube-ejemplo-n1-es-m-enlace" d="M-1.2,-3 H-3.5 A3,3 0 0 0 -3.5,3 H-1.2 M1.2,-3 H3.5 A3,3 0 0 1 3.5,3 H1.2 M-2.5,0 H2.5" fill="none" stroke="currentColor" stroke-width="1.6" stroke-linecap="round" stroke-linejoin="round"/><path id="nube-ejemplo-n1-es-k-vigente" d="M-4.5,0.5 L-1.5,3.5 L4.5,-3.5" fill="none" stroke="currentColor" stroke-width="1.8" stroke-linecap="round" stroke-linejoin="round"/><path id="nube-ejemplo-n1-es-k-revisar" d="M0,-6.6 L6.8,5 H-6.8 Z M0,-2.3 V0.8 M0,3.05 V3.15" fill="none" stroke="currentColor" stroke-width="1.6" stroke-linecap="round" stroke-linejoin="round"/><path id="nube-ejemplo-n1-es-k-vencido" d="M-3.8,-3.8 L3.8,3.8 M3.8,-3.8 L-3.8,3.8" fill="none" stroke="currentColor" stroke-width="1.8" stroke-linecap="round" stroke-linejoin="round"/><path id="nube-ejemplo-n1-es-k-envia" d="M-5,0 H4 M1,-3.5 L4.5,0 L1,3.5" fill="none" stroke="currentColor" stroke-width="1.8" stroke-linecap="round" stroke-linejoin="round"/><path id="nube-ejemplo-n1-es-k-recibe" d="M5,0 H-4 M-1,-3.5 L-4.5,0 L-1,3.5" fill="none" stroke="currentColor" stroke-width="1.8" stroke-linecap="round" stroke-linejoin="round"/><path id="nube-ejemplo-n1-es-k-doc" d="M-4,-5.5 H2 L4.5,-3 V5.5 H-4 Z M-1.5,-1 H2 M-1.5,2 H2" fill="none" stroke="currentColor" stroke-width="1.3" stroke-linecap="round" stroke-linejoin="round"/><path id="nube-ejemplo-n1-es-k-rama" d="M-5,-3 H5 M-5,3 H5 M1.5,-6 L5,-3 L1.5,0 M1.5,0 L5,3 L1.5,6" fill="none" stroke="currentColor" stroke-width="1.6" stroke-linecap="round" stroke-linejoin="round"/></defs>
<g class="dg-guias" aria-hidden="true" data-dueno="canales"><path class="dg-guia" d="M185,0 V281"/><path class="dg-guia" d="M387,0 V281"/></g>
<g id="nube-ejemplo-n1-es-b-acceso" role="group" aria-label="Acceso: ¿Por dónde entra una petición?" data-dueno="acceso"><text class="dg-t-num"><tspan x="8" y="16.3">01</tspan></text><text class="dg-t-banda"><tspan x="8" y="42.4">Acceso</tspan></text><text class="dg-t-pregunta"><tspan x="8" y="67.3">¿Por dónde entra una</tspan><tspan x="8" y="86.3">petición?</tspan></text></g>
<g id="nube-ejemplo-n1-es-b-computo" role="group" aria-label="Cómputo: ¿Dónde se ejecuta?" data-dueno="computo"><text class="dg-t-num"><tspan x="210" y="16.3">02</tspan></text><text class="dg-t-banda"><tspan x="210" y="42.4">Cómputo</tspan></text><text class="dg-t-pregunta"><tspan x="210" y="67.3">¿Dónde se ejecuta?</tspan></text></g>
<g id="nube-ejemplo-n1-es-b-datos" role="group" aria-label="Datos: ¿Dónde se guarda?" data-dueno="datos"><text class="dg-t-num"><tspan x="412" y="16.3">03</tspan></text><text class="dg-t-banda"><tspan x="412" y="42.4">Datos</tspan></text><text class="dg-t-pregunta"><tspan x="412" y="67.3">¿Dónde se guarda?</tspan></text></g>
<g id="nube-ejemplo-n1-es-e-entrada" class="dg-elem" role="graphics-symbol img" tabindex="0" aria-label="Entrada. Bloque de prueba: entrada. Componentes: Balanceador." data-dueno="entrada" data-nodos="balanceador"><rect class="dg-card" data-caja="" x="8" y="109" width="152" height="104" rx="6"/><path class="dg-f-tipo-3" d="M14,109 H12 V213 H14 A6,6 0 0 1 8,207 V115 A6,6 0 0 1 14,109 Z"/><use class="dg-c-tipo-3" href="#nube-ejemplo-n1-es-g-triangulo" x="31" y="131.9"/><text class="dg-t-nombre"><tspan x="46" y="137.5">Entrada</tspan></text><text class="dg-t-meta"><tspan x="26" y="194.5">1 componente</tspan></text></g>
<g id="nube-ejemplo-n1-es-e-ejecucion" class="dg-elem" role="graphics-symbol img" tabindex="0" aria-label="Ejecución. Bloque de prueba: ejecución. Componentes: Función, Cola." data-dueno="ejecucion" data-nodos="funcion cola"><rect class="dg-card" data-caja="" x="210" y="109" width="152" height="104" rx="6"/><path class="dg-f-tipo-1" d="M216,109 H214 V213 H216 A6,6 0 0 1 210,207 V115 A6,6 0 0 1 216,109 Z"/><use class="dg-c-tipo-1" href="#nube-ejemplo-n1-es-g-rombo" x="233" y="131.9"/><text class="dg-t-nombre"><tspan x="248" y="137.5">Ejecución</tspan></text><text class="dg-t-meta"><tspan x="228" y="194.5">2 componentes</tspan></text></g>
<g id="nube-ejemplo-n1-es-e-persistencia" class="dg-elem" role="graphics-symbol img" tabindex="0" aria-label="Persistencia. Bloque de prueba: persistencia. Componentes: Base de datos." data-dueno="persistencia" data-nodos="base"><rect class="dg-card" data-caja="" x="412" y="109" width="152" height="104" rx="6"/><path class="dg-f-tipo-2" d="M418,109 H416 V213 H418 A6,6 0 0 1 412,207 V115 A6,6 0 0 1 418,109 Z"/><use class="dg-c-tipo-2" href="#nube-ejemplo-n1-es-g-cuadrado" x="435" y="131.9"/><text class="dg-t-nombre"><tspan x="450" y="137.5">Persistencia</tspan></text><text class="dg-t-meta"><tspan x="430" y="194.5">1 componente</tspan></text></g>
<g class="dg-flujo dg-linea-continua" aria-hidden="true" data-dueno="entrada.ejecucion"><path class="dg-linea" d="M160,161 L202,161"/><path class="dg-punta" d="M210,161 L201,165.5 L201,156.5 Z"/></g>
<g class="dg-flujo dg-linea-continua" aria-hidden="true" data-dueno="ejecucion.persistencia"><path class="dg-linea" d="M362,161 L404,161"/><path class="dg-punta" d="M412,161 L403,165.5 L403,156.5 Z"/></g>
<g class="dg-rotulo" aria-hidden="true" data-dueno="franjas"><text class="dg-t-num"><tspan x="8" y="307.3">TRANSVERSALES · ABARCAN TODAS LAS CAPAS</tspan></text></g>
<g id="nube-ejemplo-n1-es-b-identidad" role="group" aria-label="Identidad: ¿Quién es quién?" data-dueno="identidad"><path class="dg-franja-filete" d="M8,321 H564"/><text class="dg-t-banda dg-t-banda-franja"><tspan x="22" y="355.7">Identidad</tspan></text><text class="dg-t-pregunta dg-t-pregunta-franja"><tspan x="22" y="377">¿Quién es quién?</tspan></text></g>
<g id="nube-ejemplo-n1-es-e-_identidad" class="dg-elem dg-elem-compacto dg-elem-fantasma" role="graphics-symbol img" tabindex="0" aria-label="Identidad: Directorio." data-dueno="_identidad" data-nodos="directorio"><rect class="dg-card dg-fantasma" data-caja="" x="230" y="331" width="180" height="60" rx="6"/><path class="dg-f-tipo-4" d="M236,331 H234 V391 H236 A6,6 0 0 1 230,385 V337 A6,6 0 0 1 236,331 Z"/><use class="dg-c-tipo-4" href="#nube-ejemplo-n1-es-g-escudo" x="252" y="361"/><text class="dg-t-nombre dg-t-nombre-compacto"><tspan x="270" y="357.8">Directorio</tspan></text><text class="dg-t-meta dg-t-meta-compacta"><tspan x="270" y="373.7">sin bloque</tspan></text></g>
<g id="nube-ejemplo-n1-es-r-_identidad.ejecucion" class="dg-ref" role="graphics-symbol img" aria-label="Conecta con Ejecución, síncrono" data-dueno="_identidad.ejecucion"><rect x="418" y="346" width="106.7" height="30" rx="15"/><use class="dg-marca" href="#nube-ejemplo-n1-es-k-envia" x="434" y="361"/><text class="dg-t-ref"><tspan x="450" y="365.5">Ejecución</tspan></text></g>
<g id="nube-ejemplo-n1-es-b-red" role="group" aria-label="Red: ¿Qué puede hablar con qué?" data-dueno="red"><path class="dg-franja-filete" d="M8,411 H564"/><text class="dg-t-banda dg-t-banda-franja"><tspan x="22" y="445.7">Red</tspan></text><text class="dg-t-pregunta dg-t-pregunta-franja"><tspan x="22" y="467">¿Qué puede hablar con qué?</tspan></text></g>
<g id="nube-ejemplo-n1-es-e-_red" class="dg-elem dg-elem-compacto dg-elem-fantasma" role="graphics-symbol img" tabindex="0" aria-label="Red: Cortafuegos." data-dueno="_red" data-nodos="cortafuegos"><rect class="dg-card dg-fantasma" data-caja="" x="230" y="421" width="180" height="60" rx="6"/><path class="dg-f-tipo-3" d="M236,421 H234 V481 H236 A6,6 0 0 1 230,475 V427 A6,6 0 0 1 236,421 Z"/><use class="dg-c-tipo-3" href="#nube-ejemplo-n1-es-g-triangulo" x="252" y="451"/><text class="dg-t-nombre dg-t-nombre-compacto"><tspan x="270" y="447.8">Cortafuegos</tspan></text><text class="dg-t-meta dg-t-meta-compacta"><tspan x="270" y="463.7">sin bloque</tspan></text></g>
</svg>
