<svg xmlns="http://www.w3.org/2000/svg" id="plataforma-ejemplo-bl-en-lienzo" class="dg-svg dg-bloque" lang="en" viewBox="0 0 218 240" width="218" height="240" role="graphics-document document" aria-labelledby="plataforma-ejemplo-bl-en-titulo" aria-describedby="plataforma-ejemplo-bl-en-desc" data-vista="bloque">
<title id="plataforma-ejemplo-bl-en-titulo">Example Platform (fictional) · Dashboards</title>
<desc id="plataforma-ejemplo-bl-en-desc">Dashboards in Example Platform (fictional): its components, one below the other; a line between two is a flow between them.</desc>
<defs><path id="plataforma-ejemplo-bl-en-g-triangulo" d="M0,-7.5 L7.5,6 L-7.5,6 Z" fill="currentColor"/><path id="plataforma-ejemplo-bl-en-g-cuadrado" d="M-6.5,-6.5 H6.5 V6.5 H-6.5 Z" fill="currentColor"/><path id="plataforma-ejemplo-bl-en-g-rombo" d="M0,-8 L8,0 L0,8 L-8,0 Z" fill="currentColor"/><path id="plataforma-ejemplo-bl-en-g-escudo" d="M0,-7.5 L6.5,-5 V0 C6.5,4 3.5,6.3 0,7.8 C-3.5,6.3 -6.5,4 -6.5,0 V-5 Z" fill="currentColor"/><path id="plataforma-ejemplo-bl-en-g-circulo" d="M0,-7 A7,7 0 1 1 0,7 A7,7 0 1 1 0,-7 Z" fill="currentColor"/><path id="plataforma-ejemplo-bl-en-g-estrella" d="M0.0,-8.2 L2.1,-2.8 L7.8,-2.5 L3.3,1.1 L4.8,6.6 L0.0,3.5 L-4.8,6.6 L-3.3,1.1 L-7.8,-2.5 L-2.1,-2.8 Z" fill="currentColor"/><path id="plataforma-ejemplo-bl-en-g-anillo" d="M0,-6 A6,6 0 1 1 0,6 A6,6 0 1 1 0,-6 Z" fill="none" stroke="currentColor" stroke-width="2.6"/><path id="plataforma-ejemplo-bl-en-g-barras" d="M-7.5,2 H-4 V7.5 H-7.5 Z M-1.75,-2.5 H1.75 V7.5 H-1.75 Z M4,-7.5 H7.5 V7.5 H4 Z" fill="currentColor"/><path id="plataforma-ejemplo-bl-en-m-cuadros" d="M-5.5,-2.5 H-1.5 V1.5 H-5.5 Z M1.5,-2.5 H5.5 V1.5 H1.5 Z M-5.5,3.5 H5.5" fill="currentColor" stroke="currentColor" stroke-width="1.2"/><path id="plataforma-ejemplo-bl-en-m-onda" d="M-6,0 C-4.5,-4.5 -1.5,-4.5 0,0 S4.5,4.5 6,0" fill="none" stroke="currentColor" stroke-width="1.6" stroke-linecap="round" stroke-linejoin="round"/><path id="plataforma-ejemplo-bl-en-m-ida-y-vuelta" d="M-5.5,-2.5 H4 M1.5,-5 L4.5,-2.5 L1.5,0 M5.5,2.5 H-4 M-1.5,0 L-4.5,2.5 L-1.5,5" fill="none" stroke="currentColor" stroke-width="1.6" stroke-linecap="round" stroke-linejoin="round"/><path id="plataforma-ejemplo-bl-en-m-enlace" d="M-1.2,-3 H-3.5 A3,3 0 0 0 -3.5,3 H-1.2 M1.2,-3 H3.5 A3,3 0 0 1 3.5,3 H1.2 M-2.5,0 H2.5" fill="none" stroke="currentColor" stroke-width="1.6" stroke-linecap="round" stroke-linejoin="round"/><path id="plataforma-ejemplo-bl-en-k-vigente" d="M-4.5,0.5 L-1.5,3.5 L4.5,-3.5" fill="none" stroke="currentColor" stroke-width="1.8" stroke-linecap="round" stroke-linejoin="round"/><path id="plataforma-ejemplo-bl-en-k-revisar" d="M0,-5 V1.5 M0,4.2 V4.6" fill="none" stroke="currentColor" stroke-width="1.8" stroke-linecap="round" stroke-linejoin="round"/><path id="plataforma-ejemplo-bl-en-k-vencido" d="M-3.8,-3.8 L3.8,3.8 M3.8,-3.8 L-3.8,3.8" fill="none" stroke="currentColor" stroke-width="1.8" stroke-linecap="round" stroke-linejoin="round"/><path id="plataforma-ejemplo-bl-en-k-envia" d="M0,5 V-4 M-3.5,-1 L0,-4.5 L3.5,-1" fill="none" stroke="currentColor" stroke-width="1.8" stroke-linecap="round" stroke-linejoin="round"/><path id="plataforma-ejemplo-bl-en-k-recibe" d="M0,-5 V4 M-3.5,1 L0,4.5 L3.5,1" fill="none" stroke="currentColor" stroke-width="1.8" stroke-linecap="round" stroke-linejoin="round"/><path id="plataforma-ejemplo-bl-en-k-doc" d="M-4,-5.5 H2 L4.5,-3 V5.5 H-4 Z M-1.5,-1 H2 M-1.5,2 H2" fill="none" stroke="currentColor" stroke-width="1.3" stroke-linecap="round" stroke-linejoin="round"/><path id="plataforma-ejemplo-bl-en-k-rama" d="M-5,-3 H5 M-5,3 H5 M1.5,-6 L5,-3 L1.5,0 M1.5,0 L5,3 L1.5,6" fill="none" stroke="currentColor" stroke-width="1.6" stroke-linecap="round" stroke-linejoin="round"/></defs>
<g id="plataforma-ejemplo-bl-en-n-modelo-semantico" class="dg-nodo" role="graphics-symbol img" aria-label="Semantic model. Analytics and business intelligence. Generally available." data-dueno="modelo-semantico" data-nodo="modelo-semantico"><rect class="dg-card" data-caja="" x="8" y="16" width="152" height="84" rx="6"/><path class="dg-f-tipo-5" d="M14,16 H12 V100 H14 A6,6 0 0 1 8,94 V22 A6,6 0 0 1 14,16 Z"/><use class="dg-c-tipo-5" href="#plataforma-ejemplo-bl-en-g-circulo" x="28" y="34"/><text class="dg-t-nombre dg-t-nombre-nodo"><tspan x="42" y="38.5">Semantic model</tspan></text><use class="dg-marca-suave" href="#plataforma-ejemplo-bl-en-k-doc" x="92.5" y="84"/><text class="dg-t-meta dg-t-meta-compacta"><tspan x="102.5" y="88.2">1 source</tspan></text></g>
<g id="plataforma-ejemplo-bl-en-n-tablero" class="dg-nodo" role="graphics-symbol img" aria-label="Bed occupancy dashboard. Analytics and business intelligence. Generally available." data-dueno="tablero" data-nodo="tablero"><rect class="dg-card" data-caja="" x="8" y="140" width="152" height="84" rx="6"/><path class="dg-f-tipo-5" d="M14,140 H12 V224 H14 A6,6 0 0 1 8,218 V146 A6,6 0 0 1 14,140 Z"/><use class="dg-c-tipo-5" href="#plataforma-ejemplo-bl-en-g-circulo" x="28" y="158"/><text class="dg-t-nombre dg-t-nombre-nodo"><tspan x="42" y="162.5">Bed occupancy</tspan><tspan x="42" y="178.5">dashboard</tspan></text><use class="dg-marca-suave" href="#plataforma-ejemplo-bl-en-k-doc" x="92.5" y="208"/><text class="dg-t-meta dg-t-meta-compacta"><tspan x="102.5" y="212.2">1 source</tspan></text></g>
<g class="dg-flujo dg-linea-punteada" aria-hidden="true" data-dueno="f-semantico-tablero"><path class="dg-linea" d="M84,100 L84,132"/><path class="dg-punta" d="M84,140 L79.5,131 L88.5,131 Z"/></g>
<g class="dg-etiqueta" aria-hidden="true" data-dueno="f-semantico-tablero"><rect x="97" y="111" width="22" height="18" rx="9"/><use class="dg-marca" href="#plataforma-ejemplo-bl-en-m-ida-y-vuelta" x="108" y="120"/></g>
</svg>
